<?xml version="1.0" standalone="no"?>
<!DOCTYPE svg PUBLIC "-//W3C//DTD SVG 20010904//EN"
 "http://www.w3.org/TR/2001/REC-SVG-20010904/DTD/svg10.dtd">
<svg version="1.0" xmlns="http://www.w3.org/2000/svg"
 width="320.000000pt" height="132.000000pt" viewBox="0 0 320.000000 132.000000"
 preserveAspectRatio="xMidYMid meet">

<g transform="translate(0.000000,132.000000) scale(0.100000,-0.100000)"
fill="#000000" stroke="none">
<path d="M1035 1198 c-3 -7 -4 -258 -3 -558 l3 -545 555 0 555 0 0 555 0 555
-553 3 c-437 2 -554 0 -557 -10z m359 -567 c10 -11 14 -25 10 -35 -6 -15 -14
-17 -53 -11 -25 4 -48 7 -51 8 -3 1 -22 -2 -42 -6 -55 -11 -88 -59 -88 -126 0
-44 5 -56 33 -87 28 -31 39 -36 82 -37 l50 -2 0 45 c0 31 -4 44 -13 42 -19 -4
-52 17 -52 33 0 31 79 47 121 25 16 -9 19 -22 19 -96 l0 -85 -37 -16 c-83 -34
-197 1 -244 76 -48 75 -37 183 24 240 44 41 69 49 148 50 62 1 79 -2 93 -18z
m281 -16 c0 -24 -4 -29 -20 -27 -50 7 -77 4 -93 -12 -23 -23 -9 -43 58 -82 66
-39 80 -57 80 -109 0 -50 -20 -81 -67 -100 -42 -18 -69 -19 -112 -4 -24 8 -31
17 -31 36 0 25 2 25 45 20 25 -4 56 -2 71 3 21 8 25 15 22 42 -3 27 -12 37
-60 65 -94 55 -111 123 -46 178 27 23 38 26 92 23 60 -3 61 -3 61 -33z m287
-73 c15 -34 28 -69 28 -77 0 -8 5 -15 10 -15 6 0 10 -4 10 -9 0 -5 14 -39 30
-75 33 -71 32 -86 -5 -86 -21 0 -30 11 -56 68 -24 54 -28 71 -19 85 13 21 13
20 -17 36 -13 6 -23 18 -23 26 0 23 -16 18 -34 -10 -9 -14 -23 -25 -31 -25
-18 0 -19 -12 -3 -28 9 -9 9 -18 0 -37 -17 -36 -16 -37 23 -18 32 15 37 16 51
1 23 -22 14 -32 -62 -67 -66 -31 -108 -39 -118 -22 -3 5 26 79 64 165 39 85
70 160 70 165 0 6 8 14 18 20 13 8 19 5 26 -12 6 -12 23 -50 38 -85z"/>
</g>
</svg>
